<svg width="126" height="126" viewBox="0 0 126 126" fill="none" xmlns="http://www.w3.org/2000/svg">
<g id="3702385_back_cash_money_icon 2">
<circle id="Ellipse 139" opacity="0.68" cx="102" cy="95" r="19" fill="#01AAC9"/>
<g id="Layer_2">
<g id="Group">
<path id="Vector" d="M63 39.375V47.25" stroke="black" stroke-width="5" stroke-miterlimit="10" stroke-linecap="round" stroke-linejoin="round"/>
<path id="Vector_2" d="M63 78.75V86.625" stroke="black" stroke-width="5" stroke-miterlimit="10" stroke-linecap="round" stroke-linejoin="round"/>
<path id="Vector_3" d="M55.125 78.75H66.9375C71.2688 78.75 74.8125 75.2063 74.8125 70.875C74.8125 66.5437 71.2688 63 66.9375 63H59.0625C54.7312 63 51.1875 59.4563 51.1875 55.125C51.1875 50.7937 54.7312 47.25 59.0625 47.25H70.875" stroke="black" stroke-width="5" stroke-miterlimit="10" stroke-linecap="round" stroke-linejoin="round"/>
<path id="Vector_4" d="M63 23.625C84.6562 23.625 102.375 41.3438 102.375 63C102.375 84.6562 84.6562 102.375 63 102.375C41.3438 102.375 23.625 84.6562 23.625 63V51.1875" stroke="black" stroke-width="5" stroke-miterlimit="10" stroke-linecap="round" stroke-linejoin="round"/>
<path id="Vector_5" d="M39.375 66.9375L23.625 51.1875L7.875 66.9375" stroke="black" stroke-width="5" stroke-miterlimit="10" stroke-linecap="round" stroke-linejoin="round"/>
<path id="Vector_6" d="M63 7.875C93.3187 7.875 118.125 32.6813 118.125 63C118.125 93.3187 93.3187 118.125 63 118.125" stroke="black" stroke-width="5" stroke-miterlimit="10" stroke-linecap="round" stroke-linejoin="round"/>
</g>
</g>
</g>
</svg>
