<svg width="182" height="182" viewBox="0 0 182 182" fill="none" xmlns="http://www.w3.org/2000/svg">
<g id="4544845_list_business_shop_delivery_comerce_icon 2">
<circle id="Ellipse 139" opacity="0.68" cx="50" cy="49" r="19" fill="#01AAC9"/>
<g id="Layer_2">
<g id="Group">
<path id="Vector" d="M55.0262 150.968H126.973C131.523 150.968 135.22 147.271 135.22 142.721V49.5168C135.22 44.9668 131.523 41.27 126.973 41.27H116.38V33.6985C116.38 32.2411 115.171 31.0325 113.714 31.0325C112.257 31.0325 111.048 32.2411 111.048 33.6985V41.27H93.6656V33.6985C93.6656 32.2411 92.457 31.0325 90.9996 31.0325C89.5422 31.0325 88.3336 32.2411 88.3336 33.6985V41.27H70.9512V33.6985C70.9512 32.2411 69.7426 31.0325 68.2852 31.0325C66.8277 31.0325 65.6191 32.2411 65.6191 33.6985V41.27H55.0262C50.4762 41.27 46.7793 44.9668 46.7793 49.5168V142.685C46.7793 147.235 50.4762 150.968 55.0262 150.968ZM52.1113 49.5168C52.1113 47.9172 53.4266 46.602 55.0262 46.602H65.6191V54.2446C65.6191 55.702 66.8277 56.9106 68.2852 56.9106C69.7426 56.9106 70.9512 55.702 70.9512 54.2446V46.602H88.3336V54.2446C88.3336 55.702 89.5422 56.9106 90.9996 56.9106C92.457 56.9106 93.6656 55.702 93.6656 54.2446V46.602H111.048V54.2446C111.048 55.702 112.257 56.9106 113.714 56.9106C115.171 56.9106 116.38 55.702 116.38 54.2446V46.602H126.973C128.573 46.602 129.888 47.9172 129.888 49.5168V142.685C129.888 144.285 128.573 145.6 126.973 145.6H55.0262C53.4266 145.6 52.1113 144.285 52.1113 142.685V49.5168Z" fill="black"/>
<path id="Vector_2" d="M64.6599 77.9896C65.1931 78.5228 65.8685 78.7716 66.5438 78.7716C67.2192 78.7716 67.8946 78.5228 68.4278 77.9896L77.8478 68.5697C78.8786 67.5388 78.8786 65.8326 77.8478 64.8017C76.8169 63.7708 75.1106 63.7708 74.0798 64.8017L66.5438 72.3376L63.8067 69.6005C62.7759 68.5697 61.0696 68.5697 60.0388 69.6005C59.0079 70.6314 59.0079 72.3376 60.0388 73.3685L64.6599 77.9896Z" fill="black"/>
<path id="Vector_3" d="M84.6367 74.0442H120.077C121.534 74.0442 122.743 72.8356 122.743 71.3782C122.743 69.9208 121.534 68.7122 120.077 68.7122H84.6367C83.1793 68.7122 81.9707 69.9208 81.9707 71.3782C81.9707 72.8356 83.1793 74.0442 84.6367 74.0442Z" fill="black"/>
<path id="Vector_4" d="M64.6599 102.731C65.1931 103.264 65.8685 103.513 66.5438 103.513C67.2192 103.513 67.8946 103.264 68.4278 102.731L77.8478 93.3109C78.8786 92.28 78.8786 90.5738 77.8478 89.5429C76.8169 88.5121 75.1106 88.5121 74.0798 89.5429L66.5438 97.0433L63.8067 94.3062C62.7759 93.2753 61.0696 93.2753 60.0388 94.3062C59.0079 95.3371 59.0079 97.0433 60.0388 98.0742L64.6599 102.731Z" fill="black"/>
<path id="Vector_5" d="M84.6367 98.7844H120.077C121.534 98.7844 122.743 97.5758 122.743 96.1184C122.743 94.661 121.534 93.4524 120.077 93.4524H84.6367C83.1793 93.4524 81.9707 94.661 81.9707 96.1184C81.9707 97.5758 83.1793 98.7844 84.6367 98.7844Z" fill="black"/>
<path id="Vector_6" d="M64.6599 127.436C65.1931 127.969 65.8685 128.218 66.5438 128.218C67.2192 128.218 67.8946 127.969 68.4278 127.436L77.8478 118.016C78.8786 116.985 78.8786 115.279 77.8478 114.248C76.8169 113.217 75.1106 113.217 74.0798 114.248L66.5438 121.784L63.8067 119.047C62.7759 118.016 61.0696 118.016 60.0388 119.047C59.0079 120.078 59.0079 121.784 60.0388 122.815L64.6599 127.436Z" fill="black"/>
<path id="Vector_7" d="M84.6367 123.525H120.077C121.534 123.525 122.743 122.317 122.743 120.859C122.743 119.402 121.534 118.193 120.077 118.193H84.6367C83.1793 118.193 81.9707 119.402 81.9707 120.859C81.9707 122.317 83.1793 123.525 84.6367 123.525Z" fill="black"/>
</g>
</g>
</g>
</svg>
