<svg width="184" height="184" viewBox="0 0 184 184" fill="none" xmlns="http://www.w3.org/2000/svg">
<g id="4544848_business_comerce_delivery_shop_truck_icon 2">
<circle id="Ellipse 139" opacity="0.68" cx="144" cy="125" r="19" fill="#01AAC9"/>
<g id="Layer_2">
<g id="Group">
<path id="Vector" d="M47.2938 90.8855V119.851C47.2938 121.325 48.5156 122.546 49.9891 122.546H59.0094C60.4828 128.153 65.55 132.286 71.5875 132.286C77.625 132.286 82.7281 128.153 84.1656 122.546H118.917C120.391 128.153 125.458 132.286 131.495 132.286C137.533 132.286 142.636 128.153 144.073 122.546H150.758C152.231 122.546 153.453 121.325 153.453 119.851V94.4434C153.453 93.8684 153.273 93.3293 152.95 92.898L143.606 79.709C143.103 78.9902 142.277 78.559 141.414 78.559H121.936V70.0777C121.936 68.6043 120.714 67.3824 119.241 67.3824H69.575C67.7063 58.434 59.7641 51.6777 50.2766 51.6777C39.3875 51.6777 30.5469 60.5184 30.5469 71.4074C30.5469 81.2543 37.8422 89.448 47.2938 90.8855ZM71.5875 126.895C67.3828 126.895 63.9688 123.481 63.9688 119.276C63.9688 115.071 67.3828 111.657 71.5875 111.657C75.7922 111.657 79.2062 115.071 79.2062 119.276C79.2062 123.481 75.7562 126.895 71.5875 126.895ZM131.495 126.895C127.291 126.895 123.877 123.481 123.877 119.276C123.877 115.071 127.291 111.657 131.495 111.657C135.7 111.657 139.114 115.071 139.114 119.276C139.114 123.481 135.7 126.895 131.495 126.895ZM148.062 95.3418V95.773H133.4V83.9855H140.013L148.062 95.3418ZM128.009 83.9855V98.4684C128.009 99.9418 129.231 101.164 130.705 101.164H148.062V117.156H144.325C143.319 110.975 137.928 106.267 131.495 106.267C127.722 106.267 124.308 107.884 121.936 110.471V83.9855H128.009ZM116.545 117.192H84.4172C83.4109 111.011 78.0203 106.303 71.5875 106.303C65.1547 106.303 59.7641 111.011 58.7578 117.192H52.6844V90.9934C61.9922 89.8434 69.2875 82.2246 69.9344 72.809H116.545V117.192ZM50.2766 57.1043C58.1828 57.1043 64.6156 63.5371 64.6156 71.4434C64.6156 79.3496 58.1828 85.7824 50.2766 85.7824C42.3703 85.7824 35.9375 79.3496 35.9375 71.4434C35.9375 63.5371 42.3703 57.1043 50.2766 57.1043Z" fill="black"/>
<path id="Vector_2" d="M46.6828 77.5527C47.1859 78.0558 47.8687 78.3433 48.5875 78.3433C49.3062 78.3433 49.9891 78.0558 50.4922 77.5527L58.9375 69.1074C59.9797 68.0652 59.9797 66.3402 58.9375 65.298C57.8953 64.2558 56.1703 64.2558 55.1281 65.298L48.5875 71.8386L45.425 68.6761C44.3828 67.6339 42.6578 67.6339 41.6156 68.6761C40.5734 69.7183 40.5734 71.4433 41.6156 72.4855L46.6828 77.5527Z" fill="black"/>
</g>
</g>
</g>
</svg>
