<svg width="743" height="789" fill="none" xmlns="http://www.w3.org/2000/svg"><path opacity=".1" fill-rule="evenodd" clip-rule="evenodd" d="M637.211 60.04l-28.19 49.445c67.802 56.472 113.341 135.284 128.47 222.332 15.129 87.048-1.14 176.652-45.896 252.777-44.756 76.124-115.078 133.802-198.381 162.711a370.444 370.444 0 01-256.29-4.925L210.144 789l-103.595-60.04 27.484-47.326C66.219 625.121 20.667 546.277 5.521 459.194c-15.145-87.082 1.103-176.725 45.84-252.903C96.1 130.113 166.41 72.366 249.723 43.373a370.803 370.803 0 01256.409 4.66L533.615 0l103.596 60.04z" fill="#01AAC9"/><g filter="url(#filter0_d_1904_3092)"><path fill-rule="evenodd" clip-rule="evenodd" d="M613.82 88.85l-25.708 45.171c61.833 51.591 103.364 123.59 117.161 203.114 13.797 79.524-1.04 161.382-41.856 230.927-40.816 69.544-104.947 122.236-180.918 148.647a337.288 337.288 0 01-233.728-4.5l-24.423 42.59-94.475-54.85 25.065-43.235c-61.846-51.628-103.387-123.657-117.2-203.212-13.812-79.555 1.006-161.449 41.805-231.042 40.799-69.594 104.92-122.349 180.899-148.836a337.608 337.608 0 01233.837 4.256L519.344 34l94.476 54.85z" fill="#01AAC9"/></g><defs><filter id="filter0_d_1904_3092" x="15.703" y="22" width="723.594" height="766.799" filterUnits="userSpaceOnUse" color-interpolation-filters="sRGB"><feFlood flood-opacity="0" result="BackgroundImageFix"/><feColorMatrix in="SourceAlpha" values="0 0 0 0 0 0 0 0 0 0 0 0 0 0 0 0 0 0 127 0" result="hardAlpha"/><feOffset dx="6" dy="11"/><feGaussianBlur stdDeviation="11.5"/><feComposite in2="hardAlpha" operator="out"/><feColorMatrix values="0 0 0 0 0 0 0 0 0 0 0 0 0 0 0 0 0 0 0.19 0"/><feBlend in2="BackgroundImageFix" result="effect1_dropShadow_1904_3092"/><feBlend in="SourceGraphic" in2="effect1_dropShadow_1904_3092" result="shape"/></filter></defs></svg>