<svg width="46" height="46" viewBox="0 0 46 46" fill="none" xmlns="http://www.w3.org/2000/svg">
<path fill-rule="evenodd" clip-rule="evenodd" d="M22 15.3334H7.75C6.80719 15.3334 6.33579 15.3334 6.04289 15.6263C5.75 15.9192 5.75 16.3906 5.75 17.3334V22.9167C5.75 23.8595 5.75 24.3309 6.04289 24.6238C6.33579 24.9167 6.80719 24.9167 7.75 24.9167H11.5V25.8334H22V15.3334ZM11.5 27.8334V38.25C11.5 39.1929 11.5 39.6643 11.7929 39.9571C12.0858 40.25 12.5572 40.25 13.5 40.25H22V27.8334H11.5ZM24 40.25H32.5C33.4428 40.25 33.9142 40.25 34.2071 39.9571C34.5 39.6643 34.5 39.1929 34.5 38.25V27.8334H24V40.25ZM34.5 25.8334V24.9167H38.25C39.1928 24.9167 39.6642 24.9167 39.9571 24.6238C40.25 24.3309 40.25 23.8595 40.25 22.9167V17.3334C40.25 16.3906 40.25 15.9192 39.9571 15.6263C39.6642 15.3334 39.1928 15.3334 38.25 15.3334H24V25.8334H34.5Z" fill="white"/>
<path d="M36.4167 10.0585V6.60823C36.4167 5.24311 35.0793 4.27917 33.7842 4.71086L30.2552 5.88721C28.6351 6.42723 27.163 7.33703 25.9555 8.54455L23 11.5V13.4167H30.3421C30.5571 13.4167 30.7707 13.3821 30.9746 13.3141L35.0491 11.9559C35.8658 11.6837 36.4167 10.9194 36.4167 10.0585Z" fill="white"/>
<path d="M9.58331 10.0585V6.60823C9.58331 5.24311 10.9207 4.27917 12.2158 4.71086L15.7448 5.88721C17.3649 6.42723 18.837 7.33703 20.0445 8.54455L23 11.5V13.4167H15.6579C15.4429 13.4167 15.2293 13.3821 15.0254 13.3141L10.9509 11.9559C10.1342 11.6837 9.58331 10.9194 9.58331 10.0585Z" fill="white"/>
</svg>
