<svg width="10" height="17" viewBox="0 0 10 17" fill="none" xmlns="http://www.w3.org/2000/svg">
<g id="Group 8 Copy 4">
<g id="Group 2 Copy 2">
<path id="Rectangle Copy 31" d="M9.48709 15.2474C9.77299 15.5234 9.77299 15.9739 9.48709 16.2498L9.2635 16.4657C8.98168 16.7377 8.52777 16.7377 8.24595 16.4657L0.512906 9.00058C0.227011 8.7246 0.227011 8.27413 0.512907 7.99814L0.736497 7.7823C1.01832 7.51024 1.47223 7.51024 1.75405 7.7823L9.48709 15.2474Z" fill="#01AAC9"/>
<path id="Rectangle Copy 30" d="M1.75405 9.21724C1.47223 9.4893 1.01832 9.4893 0.736502 9.21724L0.512911 9.0014C0.227016 8.72541 0.227016 8.27495 0.512911 7.99896L8.24596 0.533853C8.52778 0.261797 8.98169 0.261797 9.26351 0.533853L9.4871 0.749696C9.773 1.02569 9.773 1.47615 9.4871 1.75214L1.75405 9.21724Z" fill="#01AAC9"/>
</g>
</g>
</svg>
