<svg width="10" height="17" viewBox="0 0 10 17" fill="none" xmlns="http://www.w3.org/2000/svg">
<g id="Group 8 Copy 6">
<g id="Group 2 Copy 2">
<path id="Rectangle Copy 31" d="M9.48709 15.2473C9.77299 15.5233 9.77299 15.9738 9.48709 16.2498L9.2635 16.4656C8.98168 16.7377 8.52777 16.7377 8.24595 16.4656L0.512906 9.00049C0.227011 8.7245 0.227011 8.27404 0.512907 7.99805L0.736497 7.78221C1.01832 7.51015 1.47223 7.51015 1.75405 7.78221L9.48709 15.2473Z" fill="#01AAC9"/>
<path id="Rectangle Copy 30" d="M1.75405 9.21813C1.47223 9.49018 1.01832 9.49018 0.736502 9.21813L0.512911 9.00229C0.227016 8.7263 0.227016 8.27583 0.512911 7.99984L8.24596 0.534738C8.52778 0.262682 8.98169 0.262682 9.26351 0.534738L9.4871 0.750581C9.773 1.02657 9.773 1.47703 9.4871 1.75302L1.75405 9.21813Z" fill="#01AAC9"/>
</g>
</g>
</svg>
