<svg width="10" height="17" viewBox="0 0 10 17" fill="none" xmlns="http://www.w3.org/2000/svg">
<g id="Group 3 Copy 6">
<path id="Rectangle Copy 33" d="M0.512906 1.75269C0.227011 1.4767 0.22701 1.02623 0.512906 0.750244L0.736496 0.534401C1.01832 0.262345 1.47223 0.262345 1.75405 0.5344L9.48709 7.99951C9.77299 8.2755 9.77299 8.72596 9.48709 9.00195L9.2635 9.21779C8.98168 9.48985 8.52777 9.48985 8.24595 9.21779L0.512906 1.75269Z" fill="white"/>
<path id="Rectangle Copy 32" d="M8.24595 7.78187C8.52777 7.50982 8.98168 7.50982 9.2635 7.78187L9.48709 7.99771C9.77298 8.2737 9.77298 8.72417 9.48709 9.00016L1.75404 16.4653C1.47222 16.7373 1.01831 16.7373 0.736491 16.4653L0.5129 16.2494C0.227005 15.9734 0.227005 15.523 0.5129 15.247L8.24595 7.78187Z" fill="white"/>
</g>
</svg>
