<svg width="10" height="17" viewBox="0 0 10 17" fill="none" xmlns="http://www.w3.org/2000/svg">
<g id="Group 3 Copy 4">
<path id="Rectangle Copy 33" d="M0.512906 1.75259C0.227011 1.4766 0.22701 1.02614 0.512906 0.750152L0.736496 0.534309C1.01832 0.262254 1.47223 0.262253 1.75405 0.534309L9.48709 7.99942C9.77299 8.2754 9.77299 8.72587 9.48709 9.00186L9.2635 9.2177C8.98168 9.48976 8.52777 9.48976 8.24595 9.2177L0.512906 1.75259Z" fill="white"/>
<path id="Rectangle Copy 32" d="M8.24595 7.78276C8.52777 7.5107 8.98168 7.5107 9.2635 7.78276L9.48709 7.9986C9.77298 8.27459 9.77298 8.72505 9.48709 9.00104L1.75404 16.4661C1.47222 16.7382 1.01831 16.7382 0.736491 16.4661L0.5129 16.2503C0.227005 15.9743 0.227005 15.5239 0.5129 15.2479L8.24595 7.78276Z" fill="white"/>
</g>
</svg>
